<svg width="22" height="22" viewBox="0 0 22 22" fill="none" xmlns="http://www.w3.org/2000/svg">
<g clip-path="url(#clip0_3651_7669)">
<path d="M13.4445 20.1666V11.9166L20.4539 4.88878C20.5581 4.7846 20.6404 4.66066 20.696 4.52424C20.7516 4.38781 20.7794 4.24165 20.7778 4.09434V3.05545C20.7778 2.89337 20.7134 2.73793 20.5988 2.62333C20.4842 2.50872 20.3287 2.44434 20.1667 2.44434H1.83334C1.67126 2.44434 1.51582 2.50872 1.40122 2.62333C1.28661 2.73793 1.22223 2.89337 1.22223 3.05545V4.076C1.22234 4.22034 1.25102 4.36323 1.30661 4.49643C1.3622 4.62963 1.4436 4.75051 1.54612 4.85211L8.55556 11.9654V18.1988L13.4445 20.1666Z" fill="white"/>
<path d="M20.46 2.44434H1.51558C1.43561 2.45051 1.36093 2.48669 1.30652 2.54563C1.25211 2.60457 1.22201 2.6819 1.22225 2.76211V3.81322C1.22151 3.92096 1.24221 4.02777 1.28312 4.12743C1.32404 4.2271 1.38436 4.31764 1.46058 4.39378L8.79391 11.7271V17.8382L13.2245 20.0443V11.7149L20.5578 4.38156C20.6981 4.23023 20.7766 4.03181 20.7778 3.82545V2.76211C20.7778 2.67783 20.7443 2.59701 20.6847 2.53741C20.6251 2.47782 20.5443 2.44434 20.46 2.44434Z" fill="white"/>
</g>
<defs>
<clipPath id="clip0_3651_7669">
<rect width="22" height="22" fill="white"/>
</clipPath>
</defs>
</svg>
