<svg width="24" height="24" viewBox="0 0 24 24" fill="none" xmlns="http://www.w3.org/2000/svg">
<path d="M10 19H14M10.8 22H13.2C14.8802 22 15.7202 22 16.362 21.673C16.9265 21.3854 17.3854 20.9265 17.673 20.362C18 19.7202 18 18.8802 18 17.2V6.8C18 5.11984 18 4.27976 17.673 3.63803C17.3854 3.07354 16.9265 2.6146 16.362 2.32698C15.7202 2 14.8802 2 13.2 2H10.8C9.11984 2 8.27976 2 7.63803 2.32698C7.07354 2.6146 6.6146 3.07354 6.32698 3.63803C6 4.27976 6 5.11984 6 6.8V17.2C6 18.8802 6 19.7202 6.32698 20.362C6.6146 20.9265 7.07354 21.3854 7.63803 21.673C8.27976 22 9.11984 22 10.8 22Z" stroke="#1A1A1A" stroke-width="1.5" stroke-linecap="round"/>
</svg>
